<svg width="40" height="40" viewBox="0 0 40 40" fill="none" xmlns="http://www.w3.org/2000/svg">
<path d="M38.7469 28.5063C38.6963 13.7813 26.1881 1.3 11.4325 1.25313L10.5225 1.25L10.3038 2.13375L1.71125 36.8838L1.25 38.75L3.11563 38.285L37.8688 29.6344L38.75 29.4144L38.7469 28.5063ZM21.3819 32.545C20.8519 31.1256 19.6581 29.9312 17.8638 30.3862C16.3819 30.7612 15.3831 32.4869 15.7812 33.9387L2.83625 37.1613L10.39 6.61C22.1462 8.39375 31.5975 17.8425 33.385 29.5569L21.3819 32.545Z" fill="white"/>
<path d="M9.32755 25.3762C9.79999 25.3779 10.2681 25.286 10.7048 25.1058C11.1415 24.9256 11.5382 24.6606 11.8719 24.3262C12.2061 23.9933 12.4711 23.5975 12.6517 23.1617C12.8322 22.7258 12.9247 22.2586 12.9238 21.7869C12.9246 21.3154 12.8321 20.8484 12.6516 20.4129C12.4711 19.9774 12.2061 19.5819 11.8719 19.2494C11.6026 18.9812 11.1294 18.98 10.8613 19.2494C10.7279 19.3832 10.6531 19.5646 10.6532 19.7535C10.6533 19.9425 10.7284 20.1238 10.8619 20.2575C11.2701 20.6644 11.4957 21.2094 11.4957 21.7875C11.4957 22.3656 11.2719 22.91 10.8632 23.3169C10.0432 24.1331 8.61193 24.1331 7.79505 23.3181C7.65946 23.1873 7.47843 23.1143 7.29005 23.1143C7.10168 23.1143 6.92065 23.1873 6.78505 23.3181C6.7189 23.3842 6.66643 23.4627 6.63065 23.5491C6.59487 23.6355 6.57648 23.7281 6.57654 23.8217C6.5766 23.9152 6.5951 24.0078 6.63099 24.0942C6.66687 24.1805 6.71944 24.259 6.78568 24.325C7.11884 24.6595 7.51504 24.9247 7.95134 25.1051C8.38765 25.2856 8.85541 25.3777 9.32755 25.3762Z" fill="white"/>
<path d="M19.7006 15.7387C19.5955 16.1825 19.5927 16.6444 19.6925 17.0893C19.82 17.6542 20.1038 18.1718 20.5113 18.5831C20.9189 18.9944 21.4339 19.2829 21.9975 19.4156C22.1645 19.4538 22.3399 19.4244 22.4854 19.3338C22.6308 19.2432 22.7345 19.0987 22.7737 18.9318C22.807 18.7654 22.7753 18.5926 22.6853 18.4487C22.5952 18.3049 22.4536 18.2009 22.2894 18.1581C21.37 17.945 20.7425 16.9575 20.96 16.03C21.0672 15.5715 21.352 15.1743 21.7519 14.9258C22.1517 14.6772 22.6339 14.5975 23.0925 14.7043C23.2606 14.7431 23.435 14.715 23.5806 14.6231C23.7269 14.5318 23.83 14.3887 23.8675 14.22C23.8894 14.1262 23.8906 14.0293 23.87 13.935C23.8429 13.8164 23.7832 13.7078 23.6976 13.6214C23.612 13.535 23.5039 13.4743 23.3856 13.4462C22.9929 13.3538 22.5857 13.3404 22.1877 13.4068C21.7897 13.4733 21.4089 13.6182 21.0675 13.8331C20.7246 14.0441 20.4271 14.3212 20.1924 14.6484C19.9577 14.9756 19.7905 15.3462 19.7006 15.7387Z" fill="white"/>
<path d="M25.4019 26.7244C24.9844 26.6111 24.5466 26.5933 24.1213 26.6725C23.5825 26.7727 23.0828 27.0224 22.6792 27.3931C22.2756 27.7638 21.9844 28.2405 21.8388 28.7687C21.8181 28.8462 21.8129 28.927 21.8234 29.0065C21.834 29.086 21.86 29.1627 21.9002 29.2321C21.9404 29.3015 21.9938 29.3623 22.0575 29.4111C22.1212 29.4598 22.1938 29.4956 22.2713 29.5162C22.4277 29.5542 22.5926 29.5307 22.7322 29.4506C22.8717 29.3704 22.9752 29.2398 23.0213 29.0856C23.2544 28.2256 24.2113 27.6681 25.0813 27.9044C25.2948 27.9611 25.4948 28.0597 25.6699 28.1943C25.845 28.3289 25.9916 28.497 26.1013 28.6887C26.3244 29.0775 26.3844 29.5294 26.2675 29.9612C26.2403 30.061 26.239 30.1661 26.2636 30.2666C26.2882 30.367 26.338 30.4596 26.4083 30.5355C26.4786 30.6114 26.567 30.6682 26.6653 30.7004C26.7636 30.7327 26.8684 30.7394 26.97 30.72C27.0835 30.6989 27.1888 30.6464 27.2739 30.5683C27.359 30.4903 27.4204 30.39 27.4513 30.2787C27.5512 29.9112 27.5774 29.5274 27.5281 29.1497C27.4789 28.772 27.3553 28.4078 27.1644 28.0781C26.9743 27.7475 26.7208 27.4576 26.4183 27.2253C26.1158 26.993 25.7704 26.8227 25.4019 26.7244Z" fill="white"/>
<path d="M23.0312 22.2175C22.2206 19.845 19.6181 18.5669 17.2112 19.3625C14.8056 20.1594 13.5093 22.73 14.3175 25.1C15.1262 27.4763 17.73 28.7519 20.1387 27.955C22.5406 27.16 23.8368 24.5894 23.0312 22.2175Z" fill="white"/>
<path d="M25 24.3913C25.4856 25.8156 27.0506 26.5838 28.5 26.105C29.9437 25.625 30.7206 24.0825 30.2381 22.6569C29.7512 21.2325 28.185 20.4644 26.7418 20.9406C25.2956 21.4206 24.5168 22.9638 25 24.3913Z" fill="white"/>
<path d="M11.2094 14.6225C11.8731 16.5644 14.0031 17.6088 15.9719 16.9557C17.9362 16.3044 18.9975 14.2013 18.3381 12.2619C17.6737 10.3238 15.5456 9.2794 13.5769 9.93003C11.6131 10.58 10.5519 12.6832 11.2094 14.6225Z" fill="white"/>
<path d="M12.8806 28.4888C12.1956 26.4913 10.0018 25.4144 7.97556 26.0813C5.95431 26.7544 4.86244 28.9175 5.54056 30.9138C6.21994 32.9175 8.41181 33.9906 10.4437 33.3194C12.4662 32.6475 13.5574 30.4844 12.8806 28.4888Z" fill="white"/>
</svg>
